<?xml version="1.0" encoding="UTF-8" standalone="no"?>
<svg width="350px" height="350px" viewBox="0 0 350 350" version="1.1" xmlns="http://www.w3.org/2000/svg" xmlns:xlink="http://www.w3.org/1999/xlink">
    <!-- Generator: Sketch 41 (35326) - http://www.bohemiancoding.com/sketch -->
    <title>Artboard</title>
    <desc>Created with Sketch.</desc>
    <defs></defs>
    <g id="Page-1" stroke="none" stroke-width="1" fill="none" fill-rule="evenodd">
        <g id="Artboard">
            <circle id="Oval-2" stroke="#EBF1FF" stroke-width="3" fill="#EBF1FF" cx="176" cy="176" r="170"></circle>
            <g id="Group-2" transform="translate(59.000000, 52.000000)">
                <path d="M73.2113303,72 C73.2113303,72 63.7908054,105.503432 68.4618011,133.215984 C73.1327968,160.928536 57,196.746243 57,196.746243 L172.591977,198.603183 L164.469412,72 L73.2113303,72 Z" id="Path-7" fill="#69370C"></path>
                <path d="M0.0825229426,247.411648 L0.0825229426,239.732446 C0.0825229426,239.732446 -1.8768356,192.593762 13.299177,175.329652 C48.0051626,159.360165 90.3556962,142.921112 90.3556962,142.921112 L90.3556962,108 L120.794194,108 L121.42541,293.943519 C119.954849,293.981097 118.479632,294 117,294 C71.7075863,294 30.552129,276.287584 0.0825229426,247.411648 Z" id="Combined-Shape" fill="#DDA180"></path>
                <path d="M231.955924,249.241622 C201.692714,277.034122 161.327654,294 117,294 L117,108 L141.68275,108 L141.68275,142.921112 C141.68275,142.921112 184.033284,159.360165 218.73927,175.329652 C233.915282,192.593762 231.955924,239.732446 231.955924,239.732446 L231.955924,249.241622 Z" id="Combined-Shape" fill="#DDA180"></path>
                <path d="M0.0825229426,247.411648 L0.0825229426,239.811334 C0.0825229426,239.811334 -1.8768356,192.67265 13.299177,175.40854 C48.0051626,159.439053 79.0336116,147.798693 79.0336116,147.798693 L118.0045,189.149683 L118.0045,293.997095 C117.669895,293.999031 117.335061,294 117,294 C71.7075863,294 30.552129,276.287584 0.0825229426,247.411648 Z" id="Combined-Shape" fill="#21283C"></path>
                <path d="M232.052675,249.152702 L232.052675,239.811334 C232.052675,239.811334 234.012033,192.67265 218.83602,175.40854 C184.130035,159.439053 156.435027,148.501909 156.435027,148.501909 L116,189.697551 L116.962872,293.999996 C116.975248,293.999999 116.987624,294 117,294 C161.374909,294 201.778771,276.99793 232.052675,249.152702 Z" id="Combined-Shape" fill="#21283C"></path>
                <path d="M117.549849,131.406317 C90.927525,131.406317 77.9658467,113.308552 77.9658467,113.308552 L75.1069733,84.4683799 C75.1069733,84.4683799 61,72.9061094 61,63.4965883 C61,54.0870673 70.543267,56.0700506 70.543267,56.0700506 C70.543267,56.0700506 67.5796123,4 117.549849,4 C117.549849,62.0292487 117.549849,99.7574682 117.549849,131.406317 Z" id="Path-2" fill="#ECB394"></path>
                <path d="M81,58.8180988 C81,58.8180988 84.2797328,53.7028065 86.7291388,52.7395546 C89.1785448,51.7763027 105.394573,52.8403476 107.384735,52.0852418 C109.374897,51.330136 110.780573,55.8401753 110.780573,55.8401753 C110.780573,55.8401753 91.2012227,53.8538635 87.2954447,55.5001655 C83.3896667,57.1464675 81,58.8180988 81,58.8180988 Z" id="Path-3" fill="#000000"></path>
                <path d="M80,62.6101102 L80.1895232,67.3119331 C80.1895232,67.3119331 81.4026136,67.3299522 82.1575121,68.9520674 C82.9124107,70.5741825 83.2515858,76.3159462 84.2483008,80.8505818 C85.2450157,85.3852173 92.6353401,88.3874132 97.4312067,88.3874132 C102.227073,88.3874132 106.645256,86.2722486 109.607904,82.5784762 C112.570552,78.8847037 113.991857,69.4797151 115.53063,69.3923614 C117.06962,69.4797151 117.43154,69.3923614 117.43154,69.3923614 L117.43154,64.4888026 C117.43154,64.4888026 117.295501,64.1393933 115.53063,63.7582856 C113.765758,63.3771778 106.386635,61.6194906 95.0646094,61.0878838 C83.742584,60.556277 80,62.6101102 80,62.6101102 Z" id="Path-4" fill="#FFFFFF"></path>
                <path d="M86.3508886,67.2067811 C83.5971675,69.9669113 84.0480044,86.995959 97.4243747,86.995959 C110.800745,86.995959 111.496356,71.2444893 110.496737,68.4462524 C109.497119,65.6480155 104.807398,64 97.4243747,64 C90.0413517,64 89.1046096,64.4466509 86.3508886,67.2067811 Z" id="Path-5" fill="#000000"></path>
                <path d="M116,131.406317 C142.716922,131.406317 155.584002,113.308552 155.584002,113.308552 L158.442876,84.4683799 C158.442876,84.4683799 172.549849,72.9061094 172.549849,63.4965883 C172.549849,54.0870673 163.006582,56.0700506 163.006582,56.0700506 C163.006582,56.0700506 165.970237,4 116,4" id="Path-2" fill="#ECB394"></path>
                <path d="M151.780573,58.8180988 C151.780573,58.8180988 148.50084,53.7028065 146.051434,52.7395546 C143.602028,51.7763027 127.386001,52.8403476 125.395838,52.0852418 C123.405676,51.330136 122,55.8401753 122,55.8401753 C122,55.8401753 141.579351,53.8538635 145.485129,55.5001655" id="Path-3" fill="#000000"></path>
                <path d="M153.43154,62.5222264 L153.242017,67.2240492 C153.242017,67.2240492 152.028927,67.2420684 151.274028,68.8641836 C150.51913,70.4862987 150.179954,76.2280624 149.183239,80.762698 C148.186524,85.2973335 140.7962,88.2995294 136.000334,88.2995294 C131.204467,88.2995294 126.786284,86.1843648 123.823636,82.4905923 C120.860989,78.7968199 118.586319,69.4734011 117.047546,69.3860474 C115.508556,69.4734011 115.558554,69.3044776 115.558554,69.3044776 L116,63.9185181 C116,63.9185181 116.260214,63.8320965 118.025085,63.4509888 C119.789957,63.069881 127.044905,61.5316068 138.366931,61" id="Path-4" fill="#FFFFFF"></path>
                <path d="M124.350889,67.2067811 C121.597168,69.9669113 122.048004,86.995959 135.424375,86.995959 C148.800745,86.995959 149.496356,71.2444893 148.496737,68.4462524 C147.497119,65.6480155 142.807398,64 135.424375,64 C128.041352,64 127.10461,64.4466509 124.350889,67.2067811 Z" id="Path-5" fill="#000000" transform="translate(135.903957, 75.497980) scale(-1, 1) translate(-135.903957, -75.497980) "></path>
                <path d="M158.967657,83 C158.967657,83 148.287409,112.556152 153.372829,121.817604 C158.458249,131.079057 159.675703,175.078972 159.675703,175.078972 C159.675703,175.078972 173.579855,147.838091 167.55847,139.862632 C161.537084,131.887173 158.967657,83 158.967657,83 Z" id="Path-9" fill="#562E0B"></path>
                <path d="M72.9676566,90 C72.9676566,90 62.2874092,119.556152 67.3728293,128.817604 C72.4582494,138.079057 73.6757027,182.078972 73.6757027,182.078972 C73.6757027,182.078972 87.5798549,154.838091 81.5584697,146.862632 C75.5370844,138.887173 72.9676566,90 72.9676566,90 Z" id="Path-9" fill="#562E0B"></path>
                <path d="M173.607319,8.39398143 C173.607319,8.39398143 167.37636,-7.96449871 123.220249,4.99163369 C79.0641378,17.9477661 98.0653601,150.586273 98.0653601,150.586273 C98.0653601,150.586273 116.724786,99.0263607 109.600707,83.2182528 C102.476628,67.4101449 130.493138,25.544156 166.457742,25.544156 C178.71437,22.5660104 173.607319,8.39398143 173.607319,8.39398143 Z" id="Path-6" fill="#000000" transform="translate(134.331261, 75.293137) scale(-1, 1) translate(-134.331261, -75.293137) "></path>
                <path d="M97.965978,8.00035162 C97.965978,8.00035162 86.6076456,7.80908186 79.6388575,16.3486004 C72.6700694,24.8881189 55.9035063,55.2123097 57.0111334,65.9975929 C57.47402,70.504853 51.727437,161.329293 47.4072637,172.873474 C44.2603538,181.282511 60.3778644,203.28899 60.5544925,202.325586 C64.3531118,181.606313 70.2462587,174.466896 71.4971619,172.873474 C82.9906155,158.232914 83.8484076,84.991647 78.0488069,84.0465029 C72.3001122,83.1096548 66.1303238,72.0800941 64.3531118,65.9975929 C63.9940097,64.7685672 63.5265747,62.2021167 65.5760412,58.7394105 C67.6255078,55.2767044 74.4874875,57.6552731 75.8902285,58.7394105 C88.7242709,42.228918 96.3178208,32.7949779 98.7475649,27.0984507 C101.177309,21.4019235 97.965978,8.00035162 97.965978,8.00035162 Z" id="Path-8" fill="#000000"></path>
                <circle id="Oval" fill="#FFFFFF" cx="70.5" cy="76.5" r="1.5"></circle>
                <ellipse id="Oval" fill="#FFFFFF" cx="76" cy="81" rx="1" ry="1"></ellipse>
                <circle id="Oval" fill="#417505" cx="74.5" cy="79.5" r="1.5"></circle>
                <g id="Group" transform="translate(100.000000, 101.000000)">
                    <path d="M0.463224482,1.85045718 L31.7536928,1.85045718 C31.7536928,1.85045718 24.266226,9.98575305 16.3992794,9.97111609 C8.53233285,9.95647913 0.463224482,1.85045718 0.463224482,1.85045718 Z" id="Path-12" fill="#FFFFFF"></path>
                    <path d="M0.200012207,1.84275274 C0.200012207,1.84275274 11.360738,-0.402759562 14.0248573,0.0637945759 C16.6889767,0.530348714 14.7734806,0.993577621 17.0205577,0.993577621 C17.0205577,2.27725887 17.0205577,2.04717542 17.0205577,2.89132973 C10.975076,3.42092017 0.200012207,1.84275274 0.200012207,1.84275274 Z" id="Path-10" fill="#AB1500"></path>
                    <path d="M15.2000122,1.84275274 C15.2000122,1.84275274 26.360738,-0.402759562 29.0248573,0.0637945759 C31.6889767,0.530348714 29.7734806,0.993577621 32.0205577,0.993577621 C32.0205577,2.27725887 32.0205577,2.04717542 32.0205577,2.89132973 C25.975076,3.42092017 15.2000122,1.84275274 15.2000122,1.84275274 Z" id="Path-10" fill="#AB1500" transform="translate(23.610285, 1.500000) scale(-1, 1) translate(-23.610285, -1.500000) "></path>
                    <path d="M0.251181915,1.83996692 C0.251181915,1.83996692 9.78240711,8.07699636 15.9976384,8.07699636 C22.2128698,8.07699636 31.9210603,1.83996692 31.9210603,1.83996692 C31.9210603,1.83996692 25.2629118,11.9065443 16.1521237,11.9065443 C7.04133556,11.9065443 0.251181915,1.83996692 0.251181915,1.83996692 Z" id="Path-11" fill="#AA1500"></path>
                </g>
            </g>
        </g>
    </g>
</svg>